<svg width="188" height="189" xmlns="http://www.w3.org/2000/svg">
 <!-- Created with Method Draw - http://github.com/duopixel/Method-Draw/ -->
 <g>
  <title>background</title>
  <rect fill="none" id="canvas_background" height="191" width="190" y="-1" x="-1"/>
  <g display="none" overflow="visible" y="0" x="0" height="100%" width="100%" id="canvasGrid">
   <rect fill="url(#gridpattern)" stroke-width="0" y="0" x="0" height="100%" width="100%"/>
  </g>
 </g>
 <g>
  <title>Layer 1</title>
  <path d="m172.98558,14.75c0,1 0,2 0,2c0,1 0,2 0,3c0,1 0.16019,1.01291 0,2c-0.50653,3.12144 -1,6 -1,7c0,2 0,3 0,4c0,1 0,3 0,4c0,2 0,4 0,5c0,2 0,3 0,5c0,2 0,2 0,3c0,1 0,2 0,3c0,0 0,1 0,4c0,2 0,4 0,6c0,2 1,4 1,6c0,3 0,4 0,7c0,1 0,4 0,6c0,3 0,7 0,9c0,4 0,6 0,10c0,4 -1,6 -1,10c0,2 -0.48627,4.82375 -1,7c-0.4595,1.9465 0.22977,3.02675 0,4c-0.51373,2.17625 -1.29291,2.29289 -2,3c-0.70709,0.70711 -0.29291,3.29289 -1,4c-0.70709,0.70711 -2.1731,0.85274 -3,2c-1.30746,1.814 -2.186,1.69255 -4,3c-1.14728,0.8269 -1.82376,2.48625 -4,2.99998c-0.97324,0.22977 -4.04291,0.71021 -5,1c-3.45084,1.04483 -3.87857,2.49347 -7,3c-0.98709,0.16019 -3.82376,0.48627 -6,1c-2.91974,0.68927 -3.82376,0.48627 -6,1c-0.97324,0.22977 -3.69345,0.4588 -5,1c-2.77164,1.14804 -3.90778,0.49622 -8,1c-1.98502,0.24435 -4,0 -6,0c-2,0 -4,0 -5,0c-1,0 -2,0 -4,0c-1,0 -2,0 -3,0c-2,0 -2,0 -3,0c-1,0 -2.02676,0.22977 -3,0c-2.17624,-0.51373 -4,-1 -5,-1c-1,0 -2.02676,0.22977 -3,0c-2.17624,-0.51373 -4,-1 -6,-1c-2,0 -3.82376,-0.48627 -6,-1c-0.97324,-0.22977 -2,0 -3,0l-1,0l0,0l-1,0" id="svg_5" fill-opacity="null" stroke-opacity="null" stroke-width="29.5" stroke="#000" fill="none"/>
  <path d="m74.98558,98.75c-1,0 -2,0 -2,0c-1,0 -4.21167,1.71413 -7,4c-4.37469,3.58638 -7.07278,6.8819 -12,10c-3.04672,1.92807 -6.4505,4.45049 -9,7c-2.5495,2.54951 -5,4 -7,6c-2,2 -3.81265,3.2068 -6,5c-2.78833,2.28587 -5,3.99998 -7,5.99998c-2,2 -4.61383,3.297 -7,6c-1.47983,1.67633 -3,4 -5,6c-2,2 -2.69254,2.186 -4,4c-1.65381,2.29453 -5.17557,2.0979 -4,4c0.52573,0.85065 2,0 3,0c1,0 1,0 2,0c1,0 2.11237,0.54706 7,2c5.16193,1.53448 11,4 17,6c6,2 9.86829,2.28857 14,4c2.92157,1.21014 5.30447,0.46927 9,2c2.61313,1.0824 7.03067,2.91232 10,4c5.05658,1.85226 8.87857,3.49347 12,4c2.96127,0.48056 5.85272,1.1731 7,2c1.814,1.30746 3,2 4,2c1,0 1,0 2,0c1,0 1,1 2,1l1,1" id="svg_6" fill-opacity="null" stroke-opacity="null" stroke-width="9.5" stroke="#000" fill="none"/>
  <path stroke="#000" d="m72.00913,95.75c0,0 0,1.06329 0,2.12658c0,1.06329 0,4.25316 0,7.44304c0,2.12658 0,6.37975 0,9.56962c0,3.18987 -0.37335,7.47049 0,9.56962c0.59029,3.319 1.43881,5.47833 2.33072,7.44302c0.63069,1.38924 1.16536,3.18987 1.16536,5.31646c0,1.06329 1.70003,2.86392 2.33072,4.25316c0.89194,1.96469 0.71939,3.2708 1.16536,4.25316c0.63069,1.38924 0.8976,3.21833 1.16536,4.25316c0.59868,2.31398 2.86539,3.92721 3.49608,5.31646c0.44597,0.98236 0.34134,1.37474 1.16536,2.12658c0.82402,0.75184 0,2.12658 0,5.31646c0,1.06329 1.16536,4.25316 2.33072,6.37975c1.16536,2.12658 0.34134,5.6279 1.16536,6.37975c0.82402,0.75184 1.16536,1.06329 1.16536,2.12658c0,0 0,1.06329 0,2.12658l1.16536,0l1.16536,0l1.16536,0" id="svg_7" fill-opacity="null" stroke-opacity="null" stroke-width="9.5" fill="none"/>
  <path d="m63.98558,112.75c0,0 -1.29291,-0.70711 -2,0c-0.70709,0.70711 -1,1 -1,1c0,1 0,1 -1,2c-1,1 -2,2 -2,3c0,0 -0.29291,0.29289 -1,1c-0.70709,0.70711 0,1 0,3c0,0 -1,2 -1,3c0,1 0,1 0,2c0,1 0.69345,1.4588 2,2c2.77164,1.14806 5,0 6,-1c1,-1 2.33749,-2.31001 4,-5c0.7435,-1.203 2,-5 3,-7c1,-2 0.61731,-4.07613 1,-5c0.5412,-1.30656 1,-1 1,-2c0,-1 0,-2 0,-3c0,0 -1,0 -2,0c-1,0 -1,-1 -2,-1c0,0 0,-1 -1,-1c-1,0 -1.29291,0.29289 -2,1c-0.70709,0.70711 -0.4588,2.69344 -1,4c-0.76538,1.84776 0,4 -1,6c-1,2 -0.85196,3.22836 -2,6c-0.5412,1.30656 -1,3 -1,4c0,1 0,3 0,5c0,1 0,3.99998 0,4.99998c0,3 0,4 0,6c0,1 0,4 0,5c0,4 2.48627,5.82376 3,8c0.4595,1.9465 0.6218,0.9639 1,-1c1.01837,-5.28799 2.88135,-10.02521 4,-15c0.90457,-4.02264 2.49347,-7.87854 3,-10.99998c0.16019,-0.98709 0,-3 0,-2c0,1 0,2 0,5c0,2.99998 0,5.99998 0,7.99998c0,3 0,4 0,6c0,2 1,3 1,4c0,1 0,2 0,2c0,1 0,3 0,4c0,2 -0.38269,3.07611 0,4c0.5412,1.30655 1,2 2,2c1,0 1,1 1,2c0,0 0,1 0,2c0,1 0,2 0,4c0,2 0,2 0,4c0,1 1,1 1,2c0,0 3,1 3,0c0,-1 -1,-1 -2,-1c-1,0 -0.85272,-1.1731 -2,-2c-1.814,-1.30746 -5.38687,-3.9176 -8,-5c-2.77164,-1.14804 -4.69345,-1.4588 -6,-2c-0.92389,-0.38269 -0.29291,-0.29291 -1,-1c-0.70709,-0.70709 -0.70709,0.29291 0,1c0.70709,0.70709 1.69345,0.4588 3,1c0.92389,0.38269 1,1 1,1c1,0 2,0 3,0c1,0 0.82376,1.48627 3,2c0.97324,0.22977 2,0 2,0c0,-1 0,-2 0,-2c0,-1 1.03146,-4.41208 -1,-8c-2.09033,-3.69196 -7.19577,-5.64886 -11,-8c-4.25327,-2.62866 -5.15225,-3.23462 -7,-4c-1.30655,-0.5412 -1,-1 -1,0c0,0 -0.76538,2.15225 0,4c0.5412,1.30655 3,4 4,5c1,1 3.4588,2.69345 4,4c0.38269,0.92389 3.4588,2.69345 4,4c0.38269,0.92389 0.69345,2.4588 2,3c0.92389,0.38269 1.29291,0.29291 2,1c0.70709,0.70709 2,1 3,1c1,0 0.82376,0.48627 3,1c0.97324,0.22977 2,0 2,0c0,1 2,2 2,1c0,-1 -2,-1 -2,-1c-2,-1 -4,-3 -4,-3c-3,-1 -3.31076,-2.53491 -5,-4c-2.38895,-2.07193 -5.71411,-4.21167 -8,-7c-2.68979,-3.28101 -3.34619,-4.70547 -5,-7c-1.30746,-1.814 -2,-3 -2,-5c0,-1 -0.4588,-1.69345 -1,-3c-0.38269,-0.92389 0,-2 0,-2c0,-1 0,-2 0,-3c0,-1 0,-1 0,-2c0,-0.99998 0,-1.99998 0,-2.99998c0,0 0,-1 0,-2c0,-1 0,-2 0,-2c0,-1 -0.61731,-1.07613 -1,-2c-0.5412,-1.30656 -2,-1 -2,-1c-1,0 -1.29291,-1.70711 -2,-1c-0.70709,0.70711 -1.4588,2.69344 -2,4c-0.76538,1.84776 -1,3 -2,4c0,0 -1,1 -2,2c0,0 0.70709,1.29289 0,1.99998c-0.70709,0.70709 -2,0 -3,0c-1,0 -0.29291,1.29291 -1,2c-0.70709,0.70709 -1.61731,0.07611 -2,1c-0.5412,1.30655 -2,1 -2,1c-1,1 -2.07611,1.61731 -3,2c-1.30655,0.5412 -0.29291,1.29291 -1,2c-0.70709,0.70709 -2,0 -3,1c-1,1 -1,1 -2,2c-1,1 -1.29291,1.29291 -2,2c-0.70709,0.70709 -1,1 -1,1c0,1 -1,1 -2,2c0,0 -1.29291,-0.70709 -2,0c-0.70709,0.70709 0,1 0,2c0,0 1,0 2,0c1,0 2,1 3,1c1,0 3,0 4,0c2,0 3,0 4,0c2,0 3,0 3,0c1,0 1.29291,0.29291 2,1c0.70709,0.70709 2,0 2,0c1,0 2.29291,-0.70709 3,0c0.70709,0.70709 0,2 1,2c0,0 0.29291,0.29291 1,1c0.70709,0.70709 1,1 1,1c1,1 1,2 2,2c0,0 0,1 1,1c1,0 1,1 2,1c1,0 1,0 2,0c1,0 3,1 3,0c0,-1 -2,0 -3,0c-1,0 -1,0 -2,0c-1,0 -3,-1 -5,-2c-2,-1 -4,-2 -6,-2c-2,0 -2,-1 -3,-1c-1,0 -1.69345,-1.4588 -3,-2c-1.84775,-0.76538 -2,-1 -2,-2c0,-2 0,-4 0,-7c0,-1 -0.38269,-3.07611 0,-4c0.5412,-1.30655 1.29291,-1.29291 2,-2c0.70709,-0.70709 1.07611,-0.61731 2,-1c1.30655,-0.5412 2.69345,-1.4588 4,-2c1.84775,-0.76538 2.82376,-0.48627 5,-1c0.97324,-0.22977 2,-1 3,-1c1,0 1.92389,-0.38269 1,0c-1.30655,0.5412 -1.186,1.69254 -3,3c-2.29453,1.65381 -2.41885,2.41885 -4,4c-1.58115,1.58115 -1.29291,3.29291 -2,4c-1.41422,1.41422 -2.29291,1.29291 -3,2c-0.70709,0.70709 -1,0 -2,0c-1,0 0,0 1,0c2,0 5.02997,0.48874 9,0c4.09222,-0.50378 6,-1 8,-1c1,0 0.70709,0.29291 0,1c-0.70709,0.70709 -1,0 -1,1c0,1 -1.4588,0.69345 -2,2c-0.38269,0.92389 -1,2 -1,3c0,0 0.69345,0.4588 2,1c0.92389,0.38269 1,1 2,1c1,0 1.29291,0.29291 2,1c0.70709,0.70709 1,1 1,2c0,1 0,3 0,3c1,0 1,1 0,0c0,0 -1,0 -1,0c-1,0 -2.4588,-0.69345 -3,-2c-0.38269,-0.92389 -1.18875,-1.41528 -2,-2c-2.56537,-1.84903 -2,-5 -2,-7c0,-2 -1.48627,-4.82376 -2,-7c-0.4595,-1.9465 -0.70709,-2.29291 0,-3c0.70709,-0.70709 1.29291,-0.29291 2,-1c0.70709,-0.70709 0.29291,-2.29291 1,-3c1.41422,-1.41422 3,-2 5,-2l2,-2l0,0l0,-0.99998" id="svg_8" fill-opacity="null" stroke-opacity="null" stroke-width="9.5" stroke="#000" fill="none"/>
  <path d="m68.98558,147.74998c0,0 2,0 3,1c1,1 0.29291,1.29291 1,2c0.70709,0.70709 1.29291,-0.70709 2,0c0.70709,0.70709 -0.70709,2.29291 0,3c0.70709,0.70709 1.4588,0.69345 2,2c0.38269,0.92389 0,2 1,2c1,0 1,1 1,1c1,0 1.29291,0.29291 2,1c1.41422,1.41422 0.58578,1.58578 2,3c1.41422,1.41422 2,3 2,5c0,1 1,1 0,1c0,0 -0.69345,-1.4588 -2,-2c-0.92389,-0.38269 -2,0 -2,0c0,-1 -1,-1 -1,-2c0,-1 -1.4588,-1.69345 -2,-3c-0.38269,-0.92389 0,-2 0,-3l0,0l0,-1l0,-1" id="svg_9" fill-opacity="null" stroke-opacity="null" stroke-width="9.5" stroke="#000" fill="none"/>
  <path d="m64.5,139.55c0,1 1,3 4,6c4,4 7.54916,6.95517 11,8c0.95709,0.28978 2.69344,1.4588 4,2c0.92388,0.38269 3,0 4,0c1,0 1,0 1,0l0,-1" id="svg_11" fill-opacity="null" stroke-opacity="null" stroke-width="9.5" stroke="#000" fill="none"/>
 </g>
</svg>